<svg width="41" height="31" viewBox="0 0 41 31" fill="none" xmlns="http://www.w3.org/2000/svg">
<path d="M17.8854 4.928L12.5814 13.04C14.176 13.5947 15.4934 14.6 16.5334 16.056C17.5734 17.4427 18.0934 19.1413 18.0934 21.152C18.0934 23.648 17.2267 25.7973 15.4934 27.6C13.76 29.3333 11.6454 30.2 9.14938 30.2C6.65338 30.2 4.50404 29.3333 2.70138 27.6C0.968042 25.7973 0.101375 23.648 0.101375 21.152C0.101375 19.8347 0.309375 18.656 0.725375 17.616C1.21071 16.576 1.86938 15.4667 2.70138 14.288L11.7494 0.871994L17.8854 4.928ZM40.6614 4.928L35.3574 13.04C36.952 13.5947 38.2694 14.6 39.3094 16.056C40.3494 17.4427 40.8694 19.1413 40.8694 21.152C40.8694 23.648 40.0027 25.7973 38.2694 27.6C36.536 29.3333 34.4214 30.2 31.9254 30.2C29.4294 30.2 27.28 29.3333 25.4774 27.6C23.744 25.7973 22.8774 23.648 22.8774 21.152C22.8774 19.8347 23.0854 18.656 23.5014 17.616C23.9867 16.576 24.6454 15.4667 25.4774 14.288L34.5254 0.871994L40.6614 4.928Z" fill="#2E2E2E"/>
</svg>
