<svg width="62" height="62" viewBox="0 0 62 62" fill="none" xmlns="http://www.w3.org/2000/svg">
<path d="M22.4023 37.0189C22.4023 40.3514 24.9598 43.0381 28.1373 43.0381H34.6215C37.3857 43.0381 39.6332 40.6873 39.6332 37.7939C39.6332 34.6423 38.264 33.5314 36.2232 32.8081L25.8123 29.1914C23.7715 28.4681 22.4023 27.3573 22.4023 24.2056C22.4023 21.3123 24.6498 18.9614 27.414 18.9614H33.8982C37.0757 18.9614 39.6332 21.6481 39.6332 24.9806" stroke="#1A1A1A" stroke-width="1.5" stroke-linecap="round" stroke-linejoin="round"/>
<path d="M31 15.5V46.5" stroke="#1A1A1A" stroke-width="1.5" stroke-linecap="round" stroke-linejoin="round"/>
<path d="M31 56.8331C45.2674 56.8331 56.8333 45.2672 56.8333 30.9998C56.8333 16.7325 45.2674 5.1665 31 5.1665C16.7327 5.1665 5.16669 16.7325 5.16669 30.9998C5.16669 45.2672 16.7327 56.8331 31 56.8331Z" stroke="#1A1A1A" stroke-width="1.5" stroke-linecap="round" stroke-linejoin="round"/>
</svg>
